<svg width="109" height="31" viewBox="0 0 109 31" fill="none" xmlns="http://www.w3.org/2000/svg">
<path d="M0 9.61345C0 9.13078 0.368707 8.7395 0.823529 8.7395C1.27835 8.7395 1.64706 9.13078 1.64706 9.61345V20.9748C1.64706 21.4575 1.27835 21.8487 0.823529 21.8487C0.368707 21.8487 0 21.4575 0 20.9748V9.61345Z" fill="#5F0099"/>
<path d="M13.1765 9.61345C13.1765 9.13078 13.5452 8.7395 14 8.7395C14.4548 8.7395 14.8235 9.13078 14.8235 9.61345V20.9748C14.8235 21.4575 14.4548 21.8487 14 21.8487C13.5452 21.8487 13.1765 21.4575 13.1765 20.9748V9.61345Z" fill="#5F0099"/>
<path d="M26.3529 9.61345C26.3529 9.13078 26.7216 8.7395 27.1765 8.7395C27.6313 8.7395 28 9.13078 28 9.61345V20.9748C28 21.4575 27.6313 21.8487 27.1765 21.8487C26.7216 21.8487 26.3529 21.4575 26.3529 20.9748V9.61345Z" fill="#5F0099"/>
<path d="M3.29412 5.2437C3.29412 4.76103 3.66282 4.36975 4.11765 4.36975C4.57247 4.36975 4.94118 4.76103 4.94118 5.2437V25.3445C4.94118 25.8272 4.57247 26.2185 4.11765 26.2185C3.66282 26.2185 3.29412 25.8272 3.29412 25.3445V5.2437Z" fill="#5F0099"/>
<path d="M16.4706 5.2437C16.4706 4.76103 16.8393 4.36975 17.2941 4.36975C17.7489 4.36975 18.1176 4.76103 18.1176 5.2437V25.3445C18.1176 25.8272 17.7489 26.2185 17.2941 26.2185C16.8393 26.2185 16.4706 25.8272 16.4706 25.3445V5.2437Z" fill="#5F0099"/>
<path d="M9.88235 5.2437C9.88235 4.76103 10.2511 4.36975 10.7059 4.36975C11.1607 4.36975 11.5294 4.76103 11.5294 5.2437V25.3445C11.5294 25.8272 11.1607 26.2185 10.7059 26.2185C10.2511 26.2185 9.88235 25.8272 9.88235 25.3445V5.2437Z" fill="#5F0099"/>
<path d="M23.0588 5.2437C23.0588 4.76103 23.4275 4.36975 23.8824 4.36975C24.3372 4.36975 24.7059 4.76103 24.7059 5.2437V25.3445C24.7059 25.8272 24.3372 26.2185 23.8824 26.2185C23.4275 26.2185 23.0588 25.8272 23.0588 25.3445V5.2437Z" fill="#5F0099"/>
<path d="M6.58824 0.873949C6.58824 0.391281 6.95694 0 7.41176 0C7.86659 0 8.23529 0.391281 8.23529 0.87395V29.7143C8.23529 30.197 7.86659 30.5882 7.41176 30.5882C6.95694 30.5882 6.58824 30.197 6.58824 29.7143V0.873949Z" fill="#5F0099"/>
<path d="M19.7647 0.873949C19.7647 0.391281 20.1334 0 20.5882 0C21.0431 0 21.4118 0.391281 21.4118 0.87395V29.7143C21.4118 30.197 21.0431 30.5882 20.5882 30.5882C20.1334 30.5882 19.7647 30.197 19.7647 29.7143V0.873949Z" fill="#5F0099"/>
<path d="M37.176 9.6H37.8V18H37.176V9.6ZM43.0397 12.228C43.5757 12.228 43.9997 12.4 44.3117 12.744C44.6237 13.08 44.7797 13.544 44.7797 14.136V18H44.2037V14.256C44.2037 13.768 44.0877 13.388 43.8557 13.116C43.6317 12.844 43.3117 12.708 42.8957 12.708C42.4077 12.708 41.9797 12.9 41.6117 13.284C41.2517 13.66 41.0117 14.168 40.8917 14.808V18H40.3157V13.164C40.3157 13.044 40.2917 12.944 40.2437 12.864C40.2037 12.784 40.1237 12.688 40.0037 12.576L40.3757 12.228C40.5677 12.34 40.6997 12.468 40.7717 12.612C40.8517 12.756 40.8917 12.956 40.8917 13.212V13.728C41.0917 13.248 41.3757 12.88 41.7437 12.624C42.1117 12.36 42.5437 12.228 43.0397 12.228ZM49.0349 9.984C48.5949 9.984 48.2549 10.112 48.0149 10.368C47.7829 10.616 47.6669 10.976 47.6669 11.448V12.36H49.2869V12.84H47.6669V18H47.0909V11.448C47.0909 10.824 47.2589 10.344 47.5949 10.008C47.9309 9.672 48.4109 9.504 49.0349 9.504H49.2869V9.984H49.0349ZM51.3777 10.932C51.2497 10.932 51.1417 10.888 51.0537 10.8C50.9657 10.712 50.9217 10.604 50.9217 10.476C50.9217 10.348 50.9657 10.24 51.0537 10.152C51.1417 10.064 51.2497 10.02 51.3777 10.02C51.5057 10.02 51.6137 10.064 51.7017 10.152C51.7897 10.24 51.8337 10.348 51.8337 10.476C51.8337 10.604 51.7897 10.712 51.7017 10.8C51.6137 10.888 51.5057 10.932 51.3777 10.932ZM51.6057 18.132C51.4137 18.012 51.2777 17.88 51.1977 17.736C51.1257 17.592 51.0897 17.392 51.0897 17.136V12.36H51.6657V17.184C51.6657 17.304 51.6857 17.404 51.7257 17.484C51.7737 17.564 51.8577 17.66 51.9777 17.772L51.6057 18.132ZM56.9311 12.228C57.4671 12.228 57.8911 12.4 58.2031 12.744C58.5151 13.08 58.6711 13.544 58.6711 14.136V18H58.0951V14.256C58.0951 13.768 57.9791 13.388 57.7471 13.116C57.5231 12.844 57.2031 12.708 56.7871 12.708C56.2991 12.708 55.8711 12.9 55.5031 13.284C55.1431 13.66 54.9031 14.168 54.7831 14.808V18H54.2071V13.164C54.2071 13.044 54.1831 12.944 54.1351 12.864C54.0951 12.784 54.0151 12.688 53.8951 12.576L54.2671 12.228C54.4591 12.34 54.5911 12.468 54.6631 12.612C54.7431 12.756 54.7831 12.956 54.7831 13.212V13.728C54.9831 13.248 55.2671 12.88 55.6351 12.624C56.0031 12.36 56.4351 12.228 56.9311 12.228ZM61.3769 10.932C61.2489 10.932 61.1409 10.888 61.0529 10.8C60.9649 10.712 60.9209 10.604 60.9209 10.476C60.9209 10.348 60.9649 10.24 61.0529 10.152C61.1409 10.064 61.2489 10.02 61.3769 10.02C61.5049 10.02 61.6129 10.064 61.7009 10.152C61.7889 10.24 61.8329 10.348 61.8329 10.476C61.8329 10.604 61.7889 10.712 61.7009 10.8C61.6129 10.888 61.5049 10.932 61.3769 10.932ZM61.6049 18.132C61.4129 18.012 61.2769 17.88 61.1969 17.736C61.1249 17.592 61.0889 17.392 61.0889 17.136V12.36H61.6649V17.184C61.6649 17.304 61.6849 17.404 61.7249 17.484C61.7729 17.564 61.8569 17.66 61.9769 17.772L61.6049 18.132ZM64.6637 12.84V16.512C64.6637 17.248 64.9997 17.616 65.6717 17.616H66.2837V18.096H65.6717C64.6157 18.096 64.0877 17.568 64.0877 16.512V10.92C64.0877 10.8 64.0637 10.7 64.0157 10.62C63.9757 10.54 63.8957 10.444 63.7757 10.332L64.1597 9.984C64.3517 10.096 64.4837 10.224 64.5557 10.368C64.6277 10.512 64.6637 10.712 64.6637 10.968V12.36H66.2837V12.84H64.6637ZM72.7025 12.348V18.78C72.7025 19.404 72.5345 19.876 72.1985 20.196C71.8705 20.516 71.3865 20.676 70.7465 20.676H69.3305V20.196H70.7465C71.1945 20.196 71.5345 20.072 71.7665 19.824C71.9985 19.584 72.1145 19.232 72.1145 18.768V16.956C71.7065 17.74 71.0465 18.132 70.1345 18.132C69.5105 18.132 69.0305 17.96 68.6945 17.616C68.3665 17.264 68.2025 16.764 68.2025 16.116V13.176C68.2025 13.056 68.1785 12.956 68.1305 12.876C68.0905 12.796 68.0105 12.7 67.8905 12.588L68.2865 12.24C68.4705 12.352 68.5985 12.48 68.6705 12.624C68.7425 12.768 68.7785 12.968 68.7785 13.224V16.08C68.7785 16.584 68.9025 16.972 69.1505 17.244C69.3985 17.508 69.7585 17.64 70.2305 17.64C70.5665 17.64 70.8745 17.56 71.1545 17.4C71.4425 17.232 71.6705 17.008 71.8385 16.728C72.0145 16.448 72.1065 16.14 72.1145 15.804V12.348H72.7025ZM78.3463 9.6H78.7543C79.0423 9.6 79.2783 9.664 79.4623 9.792C79.6463 9.912 79.8183 10.12 79.9783 10.416L82.0783 14.388L84.1663 10.416C84.3183 10.12 84.4903 9.912 84.6823 9.792C84.8743 9.664 85.1143 9.6 85.4023 9.6H85.8103V18H85.2103V10.2C85.0823 10.216 84.9743 10.256 84.8863 10.32C84.8063 10.384 84.7263 10.492 84.6463 10.644L82.0783 15.492L79.5103 10.644C79.4223 10.484 79.3383 10.372 79.2583 10.308C79.1783 10.244 79.0743 10.208 78.9463 10.2V18H78.3463V9.6ZM92.8629 17.184C92.8629 17.312 92.8829 17.416 92.9229 17.496C92.9709 17.576 93.0589 17.672 93.1869 17.784L92.7909 18.132C92.5989 18.02 92.4629 17.892 92.3829 17.748C92.3109 17.596 92.2749 17.392 92.2749 17.136V16.692C92.0749 17.156 91.7909 17.512 91.4229 17.76C91.0549 18.008 90.6189 18.132 90.1149 18.132C89.5469 18.132 89.1069 17.956 88.7949 17.604C88.4829 17.244 88.3269 16.748 88.3269 16.116V12.36H88.9149V16.092C88.9149 16.588 89.0309 16.972 89.2629 17.244C89.5029 17.508 89.8429 17.64 90.2829 17.64C90.7629 17.64 91.1789 17.46 91.5309 17.1C91.8909 16.74 92.1389 16.26 92.2749 15.66V12.36H92.8629V17.184ZM96.8282 18.132C96.3642 18.132 95.9682 18.056 95.6402 17.904C95.3122 17.752 95.0242 17.512 94.7762 17.184L95.1602 16.848C95.4082 17.144 95.6522 17.352 95.8922 17.472C96.1402 17.584 96.4522 17.64 96.8282 17.64C97.3482 17.64 97.7442 17.544 98.0162 17.352C98.2962 17.16 98.4362 16.884 98.4362 16.524C98.4362 16.3 98.3802 16.12 98.2682 15.984C98.1642 15.848 97.9802 15.732 97.7162 15.636C97.4602 15.54 97.0882 15.448 96.6002 15.36C96.0322 15.256 95.6082 15.076 95.3282 14.82C95.0562 14.564 94.9202 14.216 94.9202 13.776C94.9202 13.304 95.0962 12.928 95.4482 12.648C95.8082 12.368 96.2842 12.228 96.8762 12.228C97.3402 12.228 97.7362 12.304 98.0642 12.456C98.4002 12.608 98.6562 12.832 98.8322 13.128L98.4482 13.452C98.0962 12.956 97.5722 12.708 96.8762 12.708C96.4602 12.708 96.1242 12.808 95.8682 13.008C95.6122 13.2 95.4842 13.456 95.4842 13.776C95.4842 14.072 95.5882 14.304 95.7962 14.472C96.0122 14.64 96.3722 14.772 96.8762 14.868C97.6602 15.02 98.2082 15.22 98.5202 15.468C98.8402 15.716 99.0002 16.072 99.0002 16.536C99.0002 17.048 98.8122 17.444 98.4362 17.724C98.0682 17.996 97.5322 18.132 96.8282 18.132ZM101.173 10.932C101.045 10.932 100.937 10.888 100.849 10.8C100.761 10.712 100.717 10.604 100.717 10.476C100.717 10.348 100.761 10.24 100.849 10.152C100.937 10.064 101.045 10.02 101.173 10.02C101.301 10.02 101.409 10.064 101.497 10.152C101.585 10.24 101.629 10.348 101.629 10.476C101.629 10.604 101.585 10.712 101.497 10.8C101.409 10.888 101.301 10.932 101.173 10.932ZM101.401 18.132C101.209 18.012 101.073 17.88 100.993 17.736C100.921 17.592 100.885 17.392 100.885 17.136V12.36H101.461V17.184C101.461 17.304 101.481 17.404 101.521 17.484C101.569 17.564 101.653 17.66 101.773 17.772L101.401 18.132ZM106.149 18.132C105.373 18.132 104.777 17.952 104.361 17.592C103.953 17.232 103.749 16.72 103.749 16.056V14.292C103.749 13.652 103.961 13.148 104.385 12.78C104.809 12.412 105.385 12.228 106.113 12.228C106.593 12.228 107.005 12.304 107.349 12.456C107.693 12.6 107.993 12.832 108.249 13.152L107.841 13.5C107.585 13.204 107.329 13 107.073 12.888C106.825 12.768 106.505 12.708 106.113 12.708C105.561 12.708 105.125 12.852 104.805 13.14C104.485 13.42 104.325 13.804 104.325 14.292V16.056C104.325 16.568 104.481 16.96 104.793 17.232C105.113 17.504 105.565 17.64 106.149 17.64C106.941 17.64 107.521 17.384 107.889 16.872L108.285 17.22C108.053 17.532 107.761 17.764 107.409 17.916C107.065 18.06 106.645 18.132 106.149 18.132Z" fill="#C88EEB"/>
</svg>
